<?xml version="1.0" encoding="UTF-8" standalone="no"?>
<svg
   xmlns:dc="http://purl.org/dc/elements/1.1/"
   xmlns:cc="http://creativecommons.org/ns#"
   xmlns:rdf="http://www.w3.org/1999/02/22-rdf-syntax-ns#"
   xmlns:svg="http://www.w3.org/2000/svg"
   xmlns="http://www.w3.org/2000/svg"
   width="15pt"
   height="15pt"
   viewBox="0 0 5.2916669 5.2916665"
   version="1.1"
   id="svg887">
  <defs
     id="defs881" />
  <metadata
     id="metadata884">
    <rdf:RDF>
      <cc:Work
         rdf:about="">
        <dc:format>image/svg+xml</dc:format>
        <dc:type
           rdf:resource="http://purl.org/dc/dcmitype/StillImage" />
        <dc:title></dc:title>
      </cc:Work>
    </rdf:RDF>
  </metadata>
  <g
     aria-label="En"
     id="text1237"
     style="font-style:normal;font-weight:normal;font-size:4.23333px;line-height:1.25;font-family:sans-serif;fill:#000000;fill-opacity:1;stroke:none;stroke-width:0.264583"
     transform="translate(0,0.03173412)">
    <g
       aria-label="En"
       id="text1274"
       style="font-style:normal;font-weight:normal;font-size:4.23333px;line-height:1.25;font-family:sans-serif;fill:#000000;fill-opacity:1;stroke:none;stroke-width:0.0700042">
      <path
         d="M 2.1962488,4.4255686 V 4.7790351 H 0.46405625 V 1.5709649 H 2.1631759 V 1.8934255 H 0.88160147 V 2.9827638 H 2.0350185 V 3.3031574 H 0.88160147 v 1.1224112 z"
         style="font-style:normal;font-variant:normal;font-weight:normal;font-stretch:normal;font-size:4.23333px;font-family:Monaco;-inkscape-font-specification:Monaco;stroke-width:0.0700042"
         id="path1276" />
      <path
         d="M 2.9031817,4.7790351 V 2.470134 H 3.2876541 V 2.9744956 Q 3.4530185,2.7078454 3.6865958,2.5569504 3.9201731,2.4060553 4.1537503,2.4060553 q 0.2046385,0 0.37207,0.109554 0.1674315,0.1074868 0.2335773,0.2831866 0.068213,0.1756997 0.068213,0.6903965 V 4.7790351 H 4.4431381 v -1.337385 q 0,-0.3327959 -0.033073,-0.4382157 Q 4.3790591,2.8959475 4.292243,2.8277346 4.207494,2.7595216 4.106208,2.7595216 q -0.2025715,0 -0.4361488,0.1922362 Q 3.438549,3.1439939 3.287654,3.4333817 v 1.3456532 z"
         style="font-style:normal;font-variant:normal;font-weight:normal;font-stretch:normal;font-size:4.23333px;font-family:Monaco;-inkscape-font-specification:Monaco;stroke-width:0.0700042"
         id="path1278" />
    </g>
  </g>
</svg>
