<?xml version="1.0" encoding="UTF-8" standalone="no"?>
<svg
   xmlns:dc="http://purl.org/dc/elements/1.1/"
   xmlns:cc="http://creativecommons.org/ns#"
   xmlns:rdf="http://www.w3.org/1999/02/22-rdf-syntax-ns#"
   xmlns:svg="http://www.w3.org/2000/svg"
   xmlns="http://www.w3.org/2000/svg"
   width="15pt"
   height="15pt"
   viewBox="0 0 5.2916669 5.2916665"
   version="1.1"
   id="svg887">
  <defs
     id="defs881" />
  <metadata
     id="metadata884">
    <rdf:RDF>
      <cc:Work
         rdf:about="">
        <dc:format>image/svg+xml</dc:format>
        <dc:type
           rdf:resource="http://purl.org/dc/dcmitype/StillImage" />
        <dc:title></dc:title>
      </cc:Work>
    </rdf:RDF>
  </metadata>
  <g
     aria-label="En"
     id="text1237"
     style="font-style:normal;font-weight:normal;font-size:4.23333px;line-height:1.25;font-family:sans-serif;fill:#000000;fill-opacity:1;stroke:none;stroke-width:0.264583"
     transform="translate(0,0.03173412)">
    <g
       aria-label="En"
       id="text1274"
       style="font-style:normal;font-weight:normal;font-size:4.23333px;line-height:1.25;font-family:sans-serif;fill:#000000;fill-opacity:1;stroke:none;stroke-width:0.0700042">
      <g
         aria-label="Ab"
         id="text30"
         style="font-style:normal;font-weight:normal;font-size:4.05278px;line-height:1.25;font-family:sans-serif;fill:#000000;fill-opacity:1;stroke:none;stroke-width:0.0177319">
        <path
           d="M 0.7247477,4.7790637 H 0.34084176 L 1.2867543,1.7078162 H 1.6924281 L 2.6442774,4.7790637 H 2.2227724 L 2.0130094,4.10426 H 0.93253183 Z M 1.0275189,3.797531 H 1.923959 L 1.5539054,2.6319609 1.4668339,2.3232531 1.3896569,2.6319609 Z"
           style="font-style:normal;font-variant:normal;font-weight:normal;font-stretch:normal;font-size:4.05278px;font-family:Monaco;-inkscape-font-specification:Monaco;stroke-width:0.0177319"
           id="path32" />
        <path
           d="M 3.3527223,3.0653393 Q 3.5229074,2.7882938 3.7583961,2.6477921 3.9938848,2.5072905 4.1917744,2.5072905 q 0.2770456,0 0.498682,0.2394464 0.2216364,0.2394465 0.2216364,0.7262551 0,0.3839059 -0.1484173,0.6866771 Q 4.6172372,4.4604614 4.371854,4.6365831 4.1264708,4.810726 3.7643328,4.810726 q -0.1029026,0 -0.3166235,-0.021768 -0.031662,-0.00396 -0.094987,-0.00989 H 2.9846475 v -3.193939 h 0.3680748 z m 0,0.4373361 v 0.9478915 q 0.1998685,0.051451 0.3680748,0.051451 0.3344335,0 0.5620066,-0.2612144 0.229552,-0.2631932 0.229552,-0.7183394 0,-0.3304757 -0.1246705,-0.496703 Q 4.2630147,2.859534 4.104703,2.859534 q -0.172164,0 -0.3799482,0.1741429 -0.2058052,0.1741429 -0.3720325,0.4689985 z"
           style="font-style:normal;font-variant:normal;font-weight:normal;font-stretch:normal;font-size:4.05278px;font-family:Monaco;-inkscape-font-specification:Monaco;stroke-width:0.0177319"
           id="path34" />
      </g>
    </g>
  </g>
</svg>
