<?xml version="1.0" encoding="UTF-8" standalone="no"?>
<svg
   xmlns:dc="http://purl.org/dc/elements/1.1/"
   xmlns:cc="http://creativecommons.org/ns#"
   xmlns:rdf="http://www.w3.org/1999/02/22-rdf-syntax-ns#"
   xmlns:svg="http://www.w3.org/2000/svg"
   xmlns="http://www.w3.org/2000/svg"
   width="15pt"
   height="15pt"
   viewBox="0 0 5.2916669 5.2916665"
   version="1.1"
   id="svg887">
  <defs
     id="defs881" />
  <metadata
     id="metadata884">
    <rdf:RDF>
      <cc:Work
         rdf:about="">
        <dc:format>image/svg+xml</dc:format>
        <dc:type
           rdf:resource="http://purl.org/dc/dcmitype/StillImage" />
        <dc:title></dc:title>
      </cc:Work>
    </rdf:RDF>
  </metadata>
  <g
     aria-label="En"
     id="text1237"
     style="font-style:normal;font-weight:normal;font-size:4.23333px;line-height:1.25;font-family:sans-serif;fill:#000000;fill-opacity:1;stroke:none;stroke-width:0.264583">
    <g
       aria-label="12"
       id="text1274"
       style="font-style:normal;font-weight:normal;font-size:4.23333px;line-height:1.25;font-family:sans-serif;fill:#000000;fill-opacity:1;stroke:none;stroke-width:0.0700042">
      <path
         d="M 1.2319674,4.5061841 V 2.0298515 Q 1.0583347,2.1683442 0.89503733,2.2654958 0.73173995,2.3626474 0.44648628,2.4639332 V 2.1166678 Q 0.89917145,1.9244317 1.2319674,1.6185074 H 1.6164397 V 4.5061841 H 2.3874514 V 4.8265777 H 0.44648628 V 4.5061841 Z"
         style="font-style:normal;font-variant:normal;font-weight:normal;font-stretch:normal;font-size:4.23333px;font-family:Monaco;-inkscape-font-specification:Monaco;stroke-width:0.0700042"
         id="path1389" />
      <path
         d="M 4.8451804,4.8265777 H 2.9042153 V 4.4731112 q 0,-0.1364257 0.05581,-0.2914549 Q 3.0158363,4.0245601 3.1729325,3.8302569 3.3300287,3.6359537 3.5057284,3.4561198 L 3.7248363,3.2328778 Q 3.7909821,3.164665 4.0142241,2.9166183 4.2374661,2.6685717 4.307746,2.5362801 q 0.072347,-0.1322915 0.072347,-0.260449 0,-0.2067055 -0.1653644,-0.3183265 -0.1653645,-0.1136881 -0.37207,-0.1136881 -0.1178222,0 -0.2645831,0.026872 -0.1446939,0.026872 -0.2542479,0.064079 -0.1095539,0.03514 -0.3555335,0.146761 V 1.7404637 q 0.260449,-0.1240233 0.520898,-0.1694985 0.262516,-0.047542 0.4320146,-0.047542 0.2501137,0 0.4588863,0.082682 0.2108397,0.080615 0.3121254,0.2521808 0.1033528,0.1715656 0.1033528,0.3658688 0,0.2170409 -0.1322916,0.444417 Q 4.533055,2.8959478 4.1692533,3.2535484 L 3.9336089,3.4871257 3.7351716,3.6814289 Q 3.5470695,3.871598 3.4313144,4.0493648 3.3155593,4.2271316 3.303157,4.4731112 h 1.5420234 z"
         style="font-style:normal;font-variant:normal;font-weight:normal;font-stretch:normal;font-size:4.23333px;font-family:Monaco;-inkscape-font-specification:Monaco;stroke-width:0.0700042"
         id="path1391" />
    </g>
  </g>
</svg>
